<?xml version="1.0" standalone="no"?>
<!DOCTYPE svg PUBLIC "-//W3C//DTD SVG 1.1//EN" "http://www.w3.org/Graphics/SVG/1.1/DTD/svg11.dtd" >
<svg xmlns="http://www.w3.org/2000/svg" xmlns:xlink="http://www.w3.org/1999/xlink" version="1.1">
<metadata>
Created by FontForge 20170731 at Sun May  6 00:19:00 2001
 By Aleksey,,,
(c) 2001 by Jeffrey N. Levine. Freeware, not for sale.
</metadata>
<defs>
<font id="BachelorPadShadowJL-Italic" horiz-adv-x="256" >
  <font-face 
    font-family="Bachelor Pad Shadow JL"
    font-weight="400"
    font-style="italic"
    font-stretch="normal"
    units-per-em="1000"
    panose-1="0 0 4 0 0 0 0 0 0 0"
    ascent="800"
    descent="-200"
    x-height="676"
    cap-height="787"
    bbox="-52 -180 1023 840"
    underline-thickness="20"
    underline-position="-163"
    slope="-12"
    unicode-range="U+0020-007E"
  />
<missing-glyph horiz-adv-x="540" 
d="M267 103l114 538h101l-114 -538h-101zM245 840l-188 -880h5l39 -57h404l186 874l-39 57l2 6h-409zM102 0l170 800h337l-170 -800h-337zM170 63h225l144 675h-225z" />
    <glyph glyph-name=".notdef" horiz-adv-x="540" 
d="M267 103l114 538h101l-114 -538h-101zM245 840l-188 -880h5l39 -57h404l186 874l-39 57l2 6h-409zM102 0l170 800h337l-170 -800h-337zM170 63h225l144 675h-225z" />
    <glyph glyph-name=".null" horiz-adv-x="0" 
 />
    <glyph glyph-name="nonmarkingreturn" unicode=" " 
 />
    <glyph glyph-name="nonmarkingreturn" unicode="&#xa0;" 
 />
    <glyph glyph-name="space" unicode="!" horiz-adv-x="295" 
d="M28 -35l37 -64h212l179 812l-39 57l1 6l-220 15l-129 -609l-46 -217h5zM373 738l-126 -549h-121l119 560zM217 4h-154l28 131h154z" />
    <glyph glyph-name="exclam" unicode="&#x22;" horiz-adv-x="392" 
d="M371 787l1 -2h-177l-58 -271h5l39 -62h148l1 6h161l57 266l-40 57l2 6h-139zM464 747l-50 -192h-104l41 192h113zM325 749l-59 -196h-96l41 196h114z" />
    <glyph glyph-name="quotedbl" unicode="#" horiz-adv-x="687" 
d="M398 334l22 55l37 -1l-22 -54h-37zM764 611l49 119l-39 57h-151l-72 -174h-40l48 115l-39 57h1h-152l-70 -169h-91l-63 -169h7l39 -57h13l-22 -55h-78l-63 -167h7l41 -57l-61 -147h6l40 -57h150l82 202h35l-60 -146h6l39 -55h152l81 198h117l62 163l-39 57l3 6h-51l22 56
l106 -1q18 45 27.5 70.5t11.5 34.5l11 56l-39 57l1 6h-27zM742 552q-2 -9 -7 -26t-16 -42l-106 1l-78 -193h115l-35 -88h-116l-81 -200h-83l84 203h-173l-82 -203h-82l84 204h-73l33 87h76l81 192h-85l32 88h89l71 174h78l-72 -176h176l74 178h76l-74 -180h98zM535 486h-175
l-78 -192h173z" />
    <glyph glyph-name="numbersign" unicode="$" horiz-adv-x="628" 
d="M673 397h24l28 131l-38 61l-76 82h-18l7 48l-39 56l2 12h-166l-22 -105h-109l-124 -119l-36 -167l51 -82h-86l-13 -141l43 -59l105 -95l23 -2l-12 -53h5l40 -57h170l23 107h82l134 93l47 223l-39 57l1 5zM608 187l-117 -79h-104l-22 -104h-103l22 104l-102 7l-86 79l7 80
h123l-7 -36h261l16 79h-293l-58 94l29 137l98 94h129l22 101h97l-18 -112h87l58 -61l-16 -76h-100l8 36h-258l-19 -87h276l108 -75z" />
    <glyph glyph-name="dollar" unicode="%" horiz-adv-x="787" 
d="M955 780l6 9h-224l-195 -206l15 71l-40 57l1 5l-93 70h-140l-131 -93l-51 -241l45 -59l82 -96h44l-312 -332h9l38 -61h238l161 177l-4 -22l44 -59l84 -97h165l106 104l54 254l-38 57l1 5l-91 70h-35l300 329zM740 81l-89 -81h-141l-67 77l44 203l101 73h121l78 -54z
M692 272h-120l-40 -188h120zM879 746l-681 -742h-154l700 742h135zM438 474l-89 -80h-140l-66 76l43 204l102 72h119l77 -53zM390 666h-119l-40 -188h119z" />
    <glyph glyph-name="percent" unicode="&#x26;" horiz-adv-x="781" 
d="M318 305l10 5h59l26 -44l-120 -78zM690 521l39 -57h9l-120 -69l-74 140h142l-2 -14h6zM37 83l34 -50l165 -127h138l145 108l25 -59l45 -49h233l-98 254l125 78l-49 174l-36 52h139l55 259l-40 57l2 9h-788l134 -232h-38l-121 -85l-81 -381zM727 1l-156 -5l-61 142
l-182 -137h-117l-139 113l72 339l88 65h104l-134 228h677l-40 -185h-113l16 75h-302l154 -296l140 81l32 -111l-128 -80zM466 259l-86 148h-93l-37 -19l-42 -199l81 -46z" />
    <glyph glyph-name="ampersand" unicode="'" horiz-adv-x="280" 
d="M141 517l37 -55l140 -42l77 109l27 200l-39 56l1 7l-204 -19l-60 -217h5l19 -26l-12 -10zM321 596l-52 -73l-63 19l60 54h-99l39 140l136 13z" />
    <glyph glyph-name="quotesingle" unicode="(" horiz-adv-x="338" 
d="M359 518h100l44 205l-39 57l1 6h-145l-167 -123l-120 -564l142 -192h176l46 215l-40 57l2 7h-70zM284 4h-129l-80 112l112 528l138 102h96l-28 -131h-91l-100 -469h112z" />
    <glyph glyph-name="parenleft" unicode=")" horiz-adv-x="363" 
d="M143 575l39 -57h54l-71 -333h-114l-47 -221h5l39 -57h179l151 133l119 562l-38 61l-114 123h-163l-45 -211h6zM308 116l-129 -112h-130l31 145h123l99 466h-123l28 131h118l95 -102z" />
    <glyph glyph-name="parenright" unicode="*" horiz-adv-x="372" 
d="M186 466l40 -58l11 9l15 -21h115l7 41l18 -20l107 126l-15 23l41 14l-62 111l-40 64l-6 -3l-22 32h-125l-12 -56l-55 22l-76 -128l7 -2l15 -23l-19 -10l54 -123zM431 658l-96 -33l69 -38l-48 -56l-39 46l-18 -84h-50l18 84l-65 -54l-22 51l90 51l-87 25l31 51l68 -27
l16 75h53l-15 -73l67 30z" />
    <glyph glyph-name="asterisk" unicode="+" horiz-adv-x="571" 
d="M516 483l36 159l-39 59h-159l-50 -234h-197l-33 -155h5l40 -59h153l-35 -165h5l39 -53h136l46 212h197l38 180l-40 56h-142zM596 348h-201l-47 -219h-75l48 223h-206l18 84h195l48 228h90l-46 -216h197z" />
    <glyph glyph-name="plus" unicode="," horiz-adv-x="284" 
d="M289 202l1 6l-215 -16l-21 -176h6l4 -7l-9 -9l29 -101l3 3l40 -58l166 139l35 162zM241 165l-22 -106l-113 -96l-8 31l68 62h-70l11 99z" />
    <glyph glyph-name="comma" unicode="-" horiz-adv-x="409" 
d="M473 513l-2 -14h-354l-15 -199h5l38 -60h309l60 216zM428 477l-38 -137h-249l12 137h275z" />
    <glyph glyph-name="comma" unicode="&#x2010;" horiz-adv-x="409" 
d="M473 513l-2 -14h-354l-15 -199h5l38 -60h309l60 216zM428 477l-38 -137h-249l12 137h275z" />
    <glyph glyph-name="hyphen" unicode="." 
d="M249 170v-1h-208l-24 -205h6l39 -57h183l44 206zM200 135l-28 -131h-113l15 131h126z" />
    <glyph glyph-name="period" unicode="/" horiz-adv-x="765" 
d="M958 777l7 13h-140l-876 -832h9l39 -57h156l846 818zM879 746l-774 -748h-65l790 748h49z" />
    <glyph glyph-name="slash" unicode="0" horiz-adv-x="784" 
d="M313 200l58 298h246l-35 -298h-269zM132 -31l40 -60h471l168 125l83 591l-39 56l1 7l-131 88h-414l-151 -100l-120 -561l89 -146h3zM739 111l-140 -102h-446l-75 121l111 525l128 91h391l109 -83zM614 160l49 422h-355l-90 -422h396z" />
    <glyph glyph-name="zero" unicode="1" horiz-adv-x="424" 
d="M536 735l1 5l-159 49l-248 -138l47 -154l3 1l40 -57l19 8l-99 -468h5l40 -57l224 -27l166 781zM488 709l-151 -711l-150 19l121 571l-106 -41l-27 89l196 104z" />
    <glyph glyph-name="one" unicode="2" horiz-adv-x="786" 
d="M800 186l1 6h-144l219 150l53 252l-39 61l-125 131h-432l-181 -114l-48 -225h5l41 -52h204l19 91h212l-637 -520h10l38 -59h782l61 222zM754 152l-40 -146h-663l593 487l19 92h-359l-20 -97h-135l34 162l152 94h408l99 -108l-46 -215l-377 -269h335z" />
    <glyph glyph-name="two" unicode="3" horiz-adv-x="795" 
d="M365 463l11 52h78zM787 408l118 63l66 335l-782 -5l-70 -296l44 -57h176l-74 -54l38 -55l284 -129l-5 -20h-260l6 25l-40 57l-213 6l-44 -206l45 -59l108 -109h459l169 117l65 305l-39 57zM748 100l-148 -96h-438l-92 88l31 146h144l-19 -89h386l26 124l-296 134l346 206
h-378l-14 -68h-132l43 202q1 -1 680 0l-47 -194l-235 -119l198 -75z" />
    <glyph glyph-name="three" unicode="4" horiz-adv-x="786" 
d="M858 726l-40 56l2 7h-213l-508 -373l-49 -232h5l38 -60h396l-33 -157h5l37 -64h206l48 224h82l48 228l-38 57l1 6h-52zM768 224h-82l-47 -218h-148l47 218h-440l36 173l477 352h181l-79 -371h87zM561 369l44 205l-304 -205h260z" />
    <glyph glyph-name="four" unicode="5" horiz-adv-x="775" 
d="M312 183l7 41h276l-7 -41h-276zM384 518h513l66 205l-40 57l3 9h-734l-96 -449l7 -3l32 -46h-64l-46 -218l11 -9l33 -49l131 -108h459l160 163l51 239l-39 61l-103 129h-351zM757 143l-145 -139h-436l-111 91l33 156h145l-22 -105h390l37 174h-400l-122 49l81 377h669
l-42 -131h-511l-35 -162h416l98 -102z" />
    <glyph glyph-name="five" unicode="6" horiz-adv-x="782" 
d="M315 193l8 39h276l-6 -39h-278zM790 439h98l35 161l-40 61l-114 123h-472l-150 -123l-115 -543l100 -157l43 -54h470l158 100l70 326l-38 61zM733 87l-132 -86h-445l-80 132l109 511l118 102h445l95 -104l-22 -106h-142l11 54h-385l-25 -121h424l91 -94zM614 152l38 177
h-395l-38 -177h395z" />
    <glyph glyph-name="six" unicode="7" horiz-adv-x="766" 
d="M924 786h-752l-54 -254h6l39 -57h196l9 43h178l-532 -556h9l38 -61h264l598 640l40 188zM878 752l-29 -138l-573 -613h-178l586 617h-382l-9 -46h-121l38 180h668z" />
    <glyph glyph-name="seven" unicode="8" horiz-adv-x="796" 
d="M334 198l6 29h255l-6 -29h-255zM114 438l35 -51l4 -3l-61 -26l-59 -278l44 -59l109 -112h442l177 90l64 300l-29 41l43 15l53 249l-38 61l-137 121h-441l-154 -116l-61 -225zM739 82l-153 -76h-424l-86 92l50 234l124 56l-103 79l50 183l128 99h416l111 -105l-43 -204
l-119 -49l103 -56zM665 469l27 140h-349l-29 -140h351zM656 335h-381l-38 -178h359z" />
    <glyph glyph-name="eight" unicode="9" horiz-adv-x="796" 
d="M356 458l6 38h278l-8 -38h-276zM885 629v2l-102 153h-472l-159 -101l-70 -330l44 -59l41 -43h-100l-35 -164l45 -59l114 -121h469l148 120l115 543zM846 615l-114 -512l-118 -102h-446l-95 105l22 105h142l-12 -54h386l26 121h-424l-91 94l61 289l132 86h445zM660 418
l38 178h-396l-38 -178h396z" />
    <glyph glyph-name="nine" unicode=":" horiz-adv-x="242" 
d="M299 407l-1 -1h-207l-23 -206h6l18 -33h-54l-25 -205h5l39 -57h183l44 209l-20 29h30l44 207zM254 372l-32 -132h-113l15 132h130zM196 135l-29 -133h-113l17 133h125z" />
    <glyph glyph-name="colon" unicode=";" horiz-adv-x="264" 
d="M299 407l-1 -1h-207l-23 -206h6l16 -25l-28 -3l-59 -216h5l17 -26l-11 -10l9 -3l39 -55l138 -42l77 109l27 201l-8 20l42 200zM254 372l-32 -132h-113l15 132h130zM203 -4l-51 -73l-63 19l58 54h-98l39 139l136 14z" />
    <glyph glyph-name="semicolon" unicode="&#x3c;" horiz-adv-x="760" 
d="M477 357l344 132l-2 128l-38 56v8l-752 -298l11 -5l39 -55l729 -297l31 146l-39 57l1 5zM744 138l-610 248l610 242l2 -56l-476 -181l489 -186z" />
    <glyph glyph-name="less" unicode="=" horiz-adv-x="620" 
d="M59 219l38 -57h582l36 166l-18 25h27l24 183l-40 56l-2 -9h-569l-34 -160h6l11 -17l-11 1l-56 -188h6zM654 451l-507 11l21 96h500zM613 259h-512l30 93h502z" />
    <glyph glyph-name="equal" unicode="&#x3e;" horiz-adv-x="760" 
d="M894 380l6 3l-625 298l-57 -135l7 -4l38 -54l241 -110l-438 -144l-33 -152l6 2l40 -58l855 297zM797 386l-716 -248l15 67l567 186l-397 181l23 56z" />
    <glyph glyph-name="greater" unicode="?" horiz-adv-x="764" 
d="M123 497l36 -66h161l-39 -27l-29 -254l-39 -183h5l37 -64h213l45 211l-6 4l27 125h210l137 115l53 249l-40 57l1 5l-133 120h-430l-177 -112l-35 -162zM809 434l-112 -94h-228l-32 -153h-147l25 199l122 86h226l30 140h-359l-16 -76h-154l25 119l144 89h407l115 -97z
M408 6h-154l28 132h154z" />
    <glyph glyph-name="question" unicode="@" horiz-adv-x="765" 
d="M672 450l-48 86l-40 63h-77q28 6 58 6q85 0 140 -53q40 -79 18 -178q-1 -7 -2.5 -13.5t-3.5 -11.5l-34 -23l-37 3zM400 85q-96 0 -151 64q-30 70 -9 165q21 102 89 174l-12 -50l-43 -204l30 -51h4l39 -58h164l7 8l24 -3q-37 -23 -72.5 -34t-69.5 -11zM164 47l16 -23
q82 -120 236 -120q46 0 94 14.5t96 42t94.5 67t87.5 89.5l-33 47l92 65q11 25 17 46.5t10 38.5q36 168 -48 289l-15 23q-45 81 -108 121t-154 40q-76 0 -150.5 -33t-137.5 -89t-109 -131.5t-64 -159.5q-10 -47 -10.5 -93t8.5 -89t28.5 -80t49.5 -65zM799 374
q-3 -17 -8 -32.5t-10 -30.5l-122 -83h-160l-16 18l-22 -23h-132l-16 27l34 157l94 24h74l14 70h-94l-6 -32l-4 -7h-66l11 49l47 48h143l43 -63l-42 -199l123 -12l63 42q3 10 6 21.5t6 25.5q15 67 4 127t-42.5 104.5t-80 70.5t-109.5 26t-120.5 -26t-109.5 -70.5t-86 -104.5
t-51 -127q-14 -68 -3 -128t42 -104.5t79.5 -70.5t109.5 -26q75 0 148 38.5t130 107.5l27 -24q-65 -78 -147.5 -122t-167.5 -44q-69 0 -124 29.5t-90 80t-47.5 118.5t3.5 145q11 51 33.5 98.5t53.5 89t69.5 75.5t81 58.5t88 38t91.5 13.5q69 0 124 -29.5t90.5 -80.5
t47.5 -119t-4 -144zM486 288l18 84h-102l-13 -84h97z" />
    <glyph glyph-name="at" unicode="A" horiz-adv-x="758" 
d="M477 373l11 -48l-36 1zM204 571l39 -56l34 -2l-283 -532h7l39 -57l214 -19l78 152h193l22 -93h5l40 -54h204l-106 811l-37 55l-1 10h-297l-158 -214zM714 6l-135 -2l-36 153h-267l-78 -153l-146 13l313 592h-99l101 135h251zM539 283l-67 286l-147 -286h214z" />
    <glyph glyph-name="A" unicode="B" horiz-adv-x="787" 
d="M400 164l22 92l153 -24v-68h-175zM792 340l81 37l52 243l-38 61l-116 105h-593l-26 -209h5l39 -57h37l-160 -556h5l40 -57l490 -3q20 9 34 15t30.5 12.5t40.5 17t64 28.5l20 35l51 244l-39 57zM730 71q-82 -35 -122 -52.5l-40 -17.5l-447 3l176 613h-104l16 129h542
l96 -86l-42 -199l-117 -51l91 -110zM672 488l27 127h-263l-34 -127h270zM610 119l4 200l-262 40l-51 -240h309z" />
    <glyph glyph-name="B" unicode="C" horiz-adv-x="762" 
d="M620 463l40 -52h220l48 179l-39 61l-91 133h-519l-114 -143l-113 -531l82 -146l43 -57h468l167 128l33 226l-39 56h-212l-22 -106h-218l39 298h235l-13 -46h5zM741 111l-141 -107h-441l-80 121l106 503l104 118h486l75 -110l-36 -132h-151l27 86h-371l-56 -433h333
l27 126h143z" />
    <glyph glyph-name="C" unicode="D" horiz-adv-x="797" 
d="M378 175l79 347h150l-20 -326zM142 564l40 -57l-153 -537h5l38 -66h565l152 114l120 567l-39 61l-99 143h-601l-33 -225h5zM743 98l-149 -89h-518l169 595h-67l21 142h548l108 -118zM622 160l26 457h-264l-104 -490z" />
    <glyph glyph-name="D" unicode="E" horiz-adv-x="762" 
d="M380 202l279 -9l47 222l-39 57l3 11h-221l2 15h446l61 220l-41 57l3 11h-747l-19 -214l6 -1l4 -41l-120 -561h6l38 -65h699l30 225l-38 57h-402zM719 9h-602l126 595l-49 5l12 132h667l-39 -137h-447l-35 -165h277l-29 -139h-281l-32 -148h451z" />
    <glyph glyph-name="E" unicode="F" horiz-adv-x="760" 
d="M917 775l3 11l-747 7l-19 -221l6 -1l4 -41l-120 -561h6l39 -59h228l60 283h282l47 222l-39 57l3 11h-221l2 15h446l61 220zM873 741l-39 -137h-447l-35 -165h277l-29 -139h-280l-62 -291h-141l126 595l-49 5l11 135z" />
    <glyph glyph-name="F" unicode="G" horiz-adv-x="788" 
d="M364 260l40 -57l169 12l-7 -25h-254l69 323h270l-3 -20l10 -4h-250l-49 -229h5zM124 -34l40 -57h406q0 2 2 2l12 -16l197 33l104 490l-16 24l29 1l37 175l-39 61l-108 110h-487l-146 -125l-118 -554l84 -144h3zM728 20l-143 -22l9 46q-35 -19 -51.5 -28.5l-16.5 -9.5
h-381l-70 119l111 522l120 99h461l95 -88l-26 -124h-147l14 70h-383l-93 -439h366l53 154l-245 -17l30 140h387z" />
    <glyph glyph-name="G" unicode="H" horiz-adv-x="790" 
d="M911 778l3 13h-217l-66 -309h-204l65 242l-40 57l2 7h-280l-46 -218h6l12 -48l-119 -558h5l40 -57h203l78 285h202l-48 -226h5l39 -59h226l173 814zM860 745l-157 -739h-143l62 290h-331l-80 -292h-115l130 613l-53 -4l29 134h189l-68 -320h339l67 318h131z" />
    <glyph glyph-name="H" unicode="I" horiz-adv-x="263" 
d="M384 774l2 13h-205l-173 -817h6l37 -62h199l172 809zM333 741l-156 -732h-130l156 732h130z" />
    <glyph glyph-name="I" unicode="J" horiz-adv-x="800" 
d="M923 779l1 7h-323l-43 -203h5l39 -57l35 -1l-71 -331h-209l22 104l-39 57l2 6l-250 -8q-11 -112 -14 -208t0 -184h5l39 -57h525l171 143l143 675zM873 745l-132 -621l-143 -123h-485q-2 72 0.5 148.5t11.5 164.5l177 6l-34 -159h333l98 461h-97l26 123h245z" />
    <glyph glyph-name="J" unicode="K" horiz-adv-x="751" 
d="M962 779l6 5h-290l-218 -173l21 100l-39 57l2 6q-88 6 -152 10.5t-115 4.5l-46 -213l6 -1l23 -49l-118 -552h5l40 -56h209l51 243l217 -263l254 57l-39 57l3 1l-255 324l474 384zM864 744l-433 -351l281 -357l-171 -38l-255 303l-61 -287h-125l127 596l-51 4l28 135
q13 -1 60.5 -4.5t133.5 -8.5l-61 -263l345 271h182z" />
    <glyph glyph-name="K" unicode="L" horiz-adv-x="712" 
d="M376 211l141 510l-37 63l-293 2l-55 -211h5l40 -57h-14l-119 -561h5l43 -42h649l24 233l-38 56l1 7h-352zM667 -2h-559l131 617h-60l34 131l219 -2l-158 -573h413z" />
    <glyph glyph-name="L" unicode="M" horiz-adv-x="861" 
d="M465 703l-38 54v9l-284 23l-44 -207h5l39 -56l-163 -515l6 -2l38 -56l203 -56l90 301l51 -188l3 4l40 -57l187 266l18 -258l3 1l40 -58l239 18l-57 804l-39 55l1 8l-224 -33l-93 -193zM820 20l-171 -13l-26 422l-236 -334l-91 340l-129 -432l-141 39l182 580h-69l27 124
l228 -18l51 -325l154 320l171 34z" />
    <glyph glyph-name="M" unicode="N" horiz-adv-x="804" 
d="M486 725l-34 49l-5 17h-262l-44 -209l5 -1l27 -37l-157 -531l6 -2l38 -56l198 -54l118 406l184 -346l3 1l40 -58l192 32l171 802l-39 57l1 6l-215 -19l-85 -401zM730 28l-147 -24l-249 473l-138 -470l-135 37l170 576h-50l27 128h212l196 -524l110 521l163 29z" />
    <glyph glyph-name="N" unicode="O" horiz-adv-x="805" 
d="M344 189l53 309h244l-66 -309h-231zM144 -36l39 -57h519l117 158l113 532l-39 61l-111 134h-476l-142 -129l-119 -560l95 -139h4zM756 135l-105 -131h-487l-89 115l113 528l122 99h450l103 -107zM600 149l92 436h-347l-92 -436h347z" />
    <glyph glyph-name="O" unicode="P" horiz-adv-x="769" 
d="M419 407l17 96h192l-20 -96h-189zM920 566l-160 222l-579 1l-46 -213h6l41 -49l-119 -562h6l37 -62h214l47 220h302l178 100zM843 610l-67 -305l-149 -83h-319l-46 -218h-164l130 613h-52l27 128h538v1h1zM633 376l47 223h-306l-47 -223h306z" />
    <glyph glyph-name="P" unicode="Q" horiz-adv-x="820" 
d="M344 189l53 309h244l-38 -176l-156 -125l5 -8h-108zM840 81l2 3l-17 9l107 504l-150 195h-476l-142 -129l-119 -560l95 -139l43 -57h460l18 -25l2 3l40 -59l177 197zM791 76l-120 -134l-42 62h-465l-89 115l113 528l122 99h450l103 -107l-107 -504l-10 -11zM622 254
l70 331h-347l-92 -436h278l-33 46l105 83z" />
    <glyph glyph-name="Q" unicode="R" horiz-adv-x="790" 
d="M419 407l17 96h192l-20 -96h-189zM795 -36h2l-112 168l162 91l73 343l-148 224h-591l-46 -214h6l41 -49l-119 -562h6l37 -62h214l48 222h40l113 -161l43 -57h269zM721 4h-176l-154 218h-83l-46 -218h-164l130 613h-52l26 123h544l95 -130l-65 -305l-149 -85h-50zM633 376
l47 223h-306l-47 -223h306z" />
    <glyph glyph-name="R" unicode="S" horiz-adv-x="786" 
d="M327 195l2 9h252l-2 -9h-252zM387 491l3 11h259l7 -11h-269zM751 449l151 -5l37 172l-39 57l1 5l-142 103h-443l-159 -118l-62 -290l45 -59l29 -29h-97l-25 -210l43 -59l102 -117h468l157 139l53 251l-38 61zM748 114l-134 -113h-443l-86 94l18 154h150l-14 -100h365
l32 151h-397l-103 94l53 250l132 100h419l114 -89l-23 -108h-147l12 57h-374l-32 -154h407l98 -118z" />
    <glyph glyph-name="S" unicode="T" horiz-adv-x="766" 
d="M924 780l2 6h-748l-37 -246h5l42 -45h202l-114 -539l5 1l42 -46h186l126 593h282l47 219zM873 746l-31 -145h-251l-128 -603l-132 -3l128 602l-276 -15l25 164h665z" />
    <glyph glyph-name="T" unicode="U" horiz-adv-x="791" 
d="M502 726l-39 57l1 1h-286l-44 -204h5l49 -55l-82 -386l80 -175l44 -55h418l155 118l147 694l-39 57l4 16h-224l-126 -592h-174zM734 105l-132 -101h-389l-81 149l99 467h-56l26 124l53 4h176l-125 -589h276l124 586h165z" />
    <glyph glyph-name="U" unicode="V" horiz-adv-x="772" 
d="M948 795v-8h-245l-191 -351l-7 299l-38 56v7h-286l-45 -209h5l39 -57h63l54 -578h4l41 -53h190l456 837zM888 758l-414 -763h-143l-58 634h-92l27 129h222l13 -519l280 519h165z" />
    <glyph glyph-name="V" unicode="W" horiz-adv-x="838" 
d="M1023 716l-35 68h-228l-27 -78l-37 74v7h-228l-20 -57l-35 60l-269 -9l-40 -187l7 -1l38 -56l11 -2l-65 -574h6l39 -57h269l74 214l7 -154h4l39 -57h181zM935 740l-281 -736h-128l-19 455l-161 -458h-210l70 624l-58 6l24 112l200 3l-43 -452l163 453h166l-26 -451
l150 444h153z" />
    <glyph glyph-name="W" unicode="X" horiz-adv-x="782" 
d="M505 724l-37 53l-1 12h-287l-41 -193h5l39 -57h105l40 -129l-325 -437h8l38 -61h244l176 236l80 -188l43 -57l243 16l-172 429l350 376l-41 58l-279 7l-161 -180zM740 12l-165 -11l-123 291l-210 -280h-167l295 398l-70 226h-121l24 111h232l58 -234l209 236
q96 -1 143 -1.5t49 -0.5l-313 -337z" />
    <glyph glyph-name="X" unicode="Y" horiz-adv-x="729" 
d="M913 772l3 5h-260l-149 -190l-25 138l-39 63l-267 -2l-38 -181h5l39 -57h71l65 -226l-77 -363h6l39 -57h221l76 359l370 453zM841 737l-331 -404l-71 -334h-153l71 334l-90 312h-85l22 101l208 -2l49 -269l207 262h173z" />
    <glyph glyph-name="Y" unicode="Z" horiz-adv-x="778" 
d="M801 200l-1 -1h-202l319 325l24 199l-40 56l1 5h-724l-22 -240h5l40 -52h311l-550 -528h9l40 -60h778l50 239zM755 165l-34 -161h-668l610 581h-467l15 161h651l-18 -150l-432 -431h343z" />
    <glyph glyph-name="Z" unicode="[" horiz-adv-x="281" 
d="M307 606h132l26 124l-39 58h-250l-175 -826h5l39 -62h257l27 127l-38 61h-94zM236 1h-188l160 751h175l-11 -49h-129l-139 -654h142z" />
    <glyph glyph-name="bracketleft" unicode="\" horiz-adv-x="765" 
d="M829 -99l-35 57l-482 769l-43 55h-140l501 -824l43 -57h156zM720 -2h-66l-455 751h49z" />
    <glyph glyph-name="backslash" unicode="]" horiz-adv-x="315" 
d="M168 663l39 -57h73l-110 -516h-142l-28 -133h5l41 -52h254l174 820l-39 57l3 11h-247l-28 -130h5zM236 -2h-191l10 48h145l139 657h-132l10 46h178z" />
    <glyph glyph-name="bracketright" unicode="^" horiz-adv-x="637" 
d="M87 345l33 -46l83 -82l251 284l93 -176l43 -57h186l-276 480l-40 65l-386 -455zM670 365h-97l-140 266l-267 -302l-40 39l323 381z" />
    <glyph glyph-name="asciicircum" unicode="_" horiz-adv-x="762" 
d="M9 -36l39 -57h737l26 119l-40 57l1 6h-741l-27 -125h5zM718 4h-669l9 45h669z" />
    <glyph glyph-name="underscore" unicode="`" 
 />
    <glyph glyph-name="grave" unicode="a" horiz-adv-x="569" 
d="M161 502l39 -56l5 -1l-189 -354l7 -1l39 -56l171 -16l55 108h112l12 -49h4l41 -54h163l-78 590l-37 55l-1 9h-221l-130 -174zM537 119l-94 -2l-24 108h-187l-56 -108l-102 10l219 414h-69l71 95h175zM415 313l-47 200l-102 -200h149z" />
    <glyph glyph-name="a" unicode="b" horiz-adv-x="586" 
d="M347 241l6 22l75 -12l1 -10h-82zM137 507l39 -57h6l-108 -373h6l39 -57l357 -2q14 6 23.5 10.5t21.5 9.5t29 12.5t46 19.5l21 35l38 176l-36 50l51 23l39 183l-38 61l-88 79h-430l-22 -170h6zM549 164q-57 -25 -85.5 -37l-28.5 -12l-313 2l124 430h-73l11 90h378l69 -60
l-30 -139l-81 -36l63 -77zM508 457l19 88h-183l-25 -88h189zM465 198l3 140l-183 28l-36 -168h216z" />
    <glyph glyph-name="b" unicode="c" horiz-adv-x="573" 
d="M128 77l39 -57h336l127 96l24 175l-39 58h-169l-16 -76h-119l23 167h124l-4 -13h5l39 -53h175l38 140l-38 61l-70 101h-373l-87 -108l-81 -381l62 -110h4zM557 193l-99 -76h-309l-56 85l75 353l71 82h341l53 -77l-26 -92h-106l20 60h-260l-38 -303h233l19 88h100z" />
    <glyph glyph-name="c" unicode="d" horiz-adv-x="598" 
d="M332 252l46 199h72l-12 -188zM49 82l39 -64h408l115 85l87 409l-39 61l-75 106h-436l-28 -182h6l25 -39l-107 -376h5zM558 183l-105 -62h-361l117 417h-46l14 99h383l77 -82zM473 227l18 320h-185l-73 -343z" />
    <glyph glyph-name="d" unicode="e" horiz-adv-x="571" 
d="M557 399l-27 35h155l49 177l-40 57l3 9h-548l-16 -174l6 -1l-84 -421h5l38 -63h512l24 180l-39 56l1 6h-69zM542 121h-422l88 417l-35 3l9 93h467l-27 -96h-313l-24 -115h194l-21 -98h-197l-22 -104h316z" />
    <glyph glyph-name="e" unicode="f" horiz-adv-x="559" 
d="M694 668l3 9h-548l-16 -174l6 -1v-26l-84 -395h5l39 -58h180l42 198h198l38 178l-27 35h155l49 177zM649 634l-27 -96h-313l-24 -115h194l-21 -98h-196l-43 -204h-99l88 417l-35 3l9 93h467z" />
    <glyph glyph-name="f" unicode="g" horiz-adv-x="591" 
d="M119 79l39 -57h281l7 -11l159 26l76 358l5 1l30 139l-38 61l-81 83h-350l-110 -94l-84 -398l62 -108h4zM548 129l-101 -15l7 32l-48 -27h-267l-49 83l78 366l83 69h324l66 -62l-18 -86h-101l8 49h-268l-65 -308h256l35 97h-169l20 98h272z" />
    <glyph glyph-name="g" unicode="h" horiz-adv-x="593" 
d="M688 670l3 11h-173l-47 -219h-105l41 151l-40 57l5 18h-217l-40 -187h5l8 -30l-83 -393h5l39 -58h161l54 201h105l-30 -141h5l38 -61h180l126 594zM640 637l-110 -518h-100l43 203h-232l-56 -204h-80l91 429l-38 -3l20 94h146l-61 -224h238l47 223h92z" />
    <glyph glyph-name="h" unicode="i" horiz-adv-x="221" 
d="M319 667l2 11h-164l-127 -596h5l38 -61h160l126 589zM271 634l-109 -513h-91l109 513h91z" />
    <glyph glyph-name="i" unicode="j" horiz-adv-x="597" 
d="M695 670l2 7h-247l-36 -167h5l40 -57h7l-40 -189h-109l11 53l-39 57l2 6l-199 -6q-7 -81 -10.5 -153.5t0.5 -144.5h4l39 -57h378l129 107l103 487zM649 636l-92 -434l-100 -86h-339q-2 51 0 105t7 114l124 4l-24 -112h233l69 323h-68l18 86h172z" />
    <glyph glyph-name="j" unicode="k" horiz-adv-x="569" 
d="M741 671l6 5h-236l-117 -92l6 21l-39 57l4 19h-211l-37 -173l6 -1l14 -33l-83 -389h5l40 -56h165l34 157l141 -172l204 45l-40 57l3 1l-171 217l345 279zM643 636l-304 -246l197 -250l-120 -26l-178 212l-42 -201h-88l88 417l-35 3l20 94l131 -9l-39 -184l242 190h128z
" />
    <glyph glyph-name="k" unicode="l" horiz-adv-x="526" 
d="M332 275l93 338l-40 57l3 7h-235l-36 -171h5l17 -41l-83 -392h5l41 -46h476l20 185l-39 56v7h-227zM505 114h-392l92 432h-38l19 90h154l-110 -401h289z" />
    <glyph glyph-name="l" unicode="m" horiz-adv-x="645" 
d="M385 600l-38 54l-1 9l-215 17l-36 -169h5l23 -35l-113 -362l6 -2l38 -56l161 -45l52 173l24 -87l2 4l40 -57l116 165l10 -131l43 -57l188 14l-41 585l-40 55v8l-172 -25l-47 -97zM612 129l-119 -9l-20 295l-163 -233l-64 238l-91 -303l-99 27l128 407h-49l18 86l161 -12
l35 -228l108 224l122 33z" />
    <glyph glyph-name="m" unicode="n" horiz-adv-x="603" 
d="M474 429l-115 252h-199l-36 -170l22 -24l-110 -372l44 -58l157 -43l77 265l109 -204l43 -57l150 25l124 582l-40 57l1 6l-175 -13zM550 135l-104 -17l-175 331l-95 -329l-95 26l118 401l-34 2l19 90h148l137 -367l77 365l112 8z" />
    <glyph glyph-name="n" unicode="o" horiz-adv-x="594" 
d="M306 259l30 174h133l-37 -174h-126zM133 77l39 -57h373l88 120l80 379l-38 61l-83 101h-341l-108 -96l-85 -403l71 -105h4zM567 210l-73 -93h-341l-62 81l79 370l85 69h315l71 -75zM458 219l64 305h-243l-64 -305h243z" />
    <glyph glyph-name="o" unicode="p" horiz-adv-x="570" 
d="M360 413l4 25h95l-4 -25h-95zM698 468l-129 211h-412l-36 -173h5l27 -32l-84 -395h6l38 -61h170l33 154h203l131 74zM620 530l-39 -202l-104 -57h-223l-33 -153h-115l91 430l-36 -1l20 92l375 -2q-1 1 64 -107zM480 378l34 156h-213l-34 -156h213z" />
    <glyph glyph-name="p" unicode="q" horiz-adv-x="620" 
d="M306 259l30 174h132l-18 -87l-107 -87h-37zM133 77l39 -57h322l5 -6l1 2l41 -58l140 156l-43 53l75 352l-38 61l-83 101h-341l-108 -96l-85 -403l71 -105h4zM592 168l-84 -94l-29 43h-326l-62 81l79 370l85 69h315l71 -75l-74 -352l-7 -8zM473 293l49 231h-243l-64 -305
h195l-23 32l73 59z" />
    <glyph glyph-name="q" unicode="r" horiz-adv-x="597" 
d="M360 413l4 25h95l-4 -25h-95zM616 77h3l-73 110l105 59l54 252l-38 61l-80 121h-429l-37 -174h5l27 -32l-84 -395h6l38 -61h170l33 155h13l67 -96l43 -57h216zM542 117h-123l-106 154h-59l-33 -153h-115l91 430l-36 -1l19 86h382l64 -91l-45 -214l-105 -59h-35zM480 378
l34 156h-213l-34 -156h213z" />
    <glyph glyph-name="r" unicode="s" horiz-adv-x="589" 
d="M605 399l85 -3l30 138l-40 57l1 5l-106 78h-317l-120 -89l-45 -214l34 -45h-49l-20 -165l45 -59l75 -87h335l119 104l40 185l-39 61zM562 195l-95 -80h-310l-61 66l14 108h104l-9 -70h256l22 106h-278l-72 66l37 175l93 70h293l80 -63l-16 -75h-103l8 40h-262l-23 -108
h286l69 -83z" />
    <glyph glyph-name="s" unicode="t" horiz-adv-x="571" 
d="M698 671l2 6h-547l-29 -196h5l41 -50h124l-77 -359h5l42 -48h151l88 415h197l38 175zM648 637l-21 -101h-175l-90 -422h-121l90 420l-165 -11l17 114h465z" />
    <glyph glyph-name="t" unicode="u" horiz-adv-x="593" 
d="M414 617l-39 58h-222l-35 -166h5l33 -38l-56 -263l60 -131l44 -55h301l117 89l106 502l-39 57l3 12h-180l-88 -414h-84zM552 189l-92 -72h-273l-57 105l70 327h-40l19 90h159l-88 -413h194l87 411h116z" />
    <glyph glyph-name="u" unicode="v" horiz-adv-x="585" 
d="M720 682l1 -4h-195l-109 -199l-3 143l-39 56v7h-219l-37 -170h5l40 -57h36l35 -386h5l40 -55h147l332 608zM660 645l-290 -533h-100l-40 443h-66l19 90h156l9 -363l197 363h115z" />
    <glyph glyph-name="v" unicode="w" horiz-adv-x="633" 
d="M742 666l3 10h-182l-9 -29l-17 24v7h-178l-9 -25l-12 22h-208l-32 -155l6 -1l32 -47l-44 -396h6l39 -57h206l26 75l1 -17h4l39 -57h143l225 589zM693 633l-197 -516h-90l-13 319l-112 -320h-147l48 437l-41 4l17 80h140l-29 -317l114 318h116l-20 -316l107 311h107z" />
    <glyph glyph-name="w" unicode="x" horiz-adv-x="589" 
d="M422 570l-49 109h-218l-33 -159h5l38 -57h70l19 -61l-236 -319h8l38 -58h195l112 150l44 -101l43 -57l191 13l-123 310l257 275l-41 58l-223 6zM555 123l-115 -8l-86 205l-147 -197h-117l207 279l-49 158h-85l17 78h163l41 -164l145 165l143 -3l-228 -234z" />
    <glyph glyph-name="x" unicode="y" horiz-adv-x="548" 
d="M699 666l4 5h-208l-89 -111l-10 53l-35 59l-210 5l-30 -150h5l40 -57h45l38 -133l-56 -263h6l39 -57h175l55 259l270 332zM626 631l-231 -283l-50 -234h-108l50 234l-63 219h-58l14 70q-1 0 35 0q37 0 111 -1l34 -188l146 183h120z" />
    <glyph glyph-name="y" unicode="z" horiz-adv-x="589" 
d="M612 265l1 3h-100l190 192l18 154l-40 56l2 6h-530l-19 -193h6l39 -54h171l-365 -352h9l40 -59h577l40 190zM566 230l-24 -113h-467l427 407h-327l10 113h456l-12 -105l-302 -302h239z" />
    <glyph glyph-name="z" unicode="{" horiz-adv-x="331" 
d="M338 338l-7 10l12 13l50 238h76l27 124l-39 57l1 6h-142l-69 -50l-52 -248l-128 -87l12 -11l33 -49l43 -39l-52 -268q5 -7 9.5 -13.5t10.5 -11.5l25 -34q51 -74 148 -74q19 0 32 4l29 38l21 99l-39 56l1 7h-52zM286 1q-11 -3 -23 -3q-81 0 -120 54l56 288l-69 62l96 65
l53 250l41 29h94l-12 -53h-71l-54 -254l-55 -40l50 -24l-66 -310h94z" />
    <glyph glyph-name="braceleft" unicode="}" horiz-adv-x="350" 
d="M431 399l3 2l-47 46l48 228l-39 61l-45 50h-144l-28 -130h6l39 -57l13 -1l-38 -178l13 -15l-22 -5l-63 -295h-98l-29 -140h6l38 -57l55 -7q94 0 183 75l64 283l125 82zM371 402l-95 -62l-65 -288q-63 -54 -142 -54l-21 3l14 64h103l66 310l48 24l-32 40l55 256h-78l11 51
h95l26 -29l-53 -250z" />
    <glyph glyph-name="bar" unicode="~" 
 />
    </font>
</defs>
</svg>
